<?xml version="1.0" encoding="iso-8859-1"?>
<!-- Generator: Adobe Illustrator 27.1.1, SVG Export Plug-In . SVG Version: 6.00 Build 0)  -->
<svg version="1.1" id="&#x5206;&#x96E2;&#x6A21;&#x5F0F;"
	 xmlns="http://www.w3.org/2000/svg" xmlns:xlink="http://www.w3.org/1999/xlink" x="0px" y="0px" viewBox="0 0 165 50"
	 style="enable-background:new 0 0 165 50;" xml:space="preserve">
<g>
	<g>
		<g>
			<polygon style="fill:#005EAE;" points="93.978,2.632 111.207,2.632 113.556,0.017 96.333,0.017 			"/>
			<polygon style="fill:#005EAE;" points="80.848,0.017 64.014,0.017 65.57,2.632 82.401,2.632 			"/>
			<polygon style="fill:#005EAE;" points="85.536,7.896 83.964,5.261 67.135,5.261 68.702,7.896 			"/>
			<polygon style="fill:#005EAE;" points="91.607,5.261 89.238,7.896 106.463,7.896 108.834,5.261 			"/>
			<polygon style="fill:#005EAE;" points="70.267,10.524 71.836,13.161 101.715,13.161 104.092,10.524 			"/>
			<polygon style="fill:#005EAE;" points="73.398,15.787 74.965,18.421 96.974,18.421 99.348,15.787 			"/>
			<polygon style="fill:#005EAE;" points="94.606,21.052 76.529,21.052 76.868,21.622 75.009,23.687 94.93,23.687 93.856,21.881 			
				"/>
			<polygon style="fill:#005EAE;" points="72.635,26.314 70.267,28.947 98.06,28.947 96.495,26.314 			"/>
			<polygon style="fill:#005EAE;" points="67.899,31.58 65.526,34.212 101.188,34.212 99.625,31.58 			"/>
			<polygon style="fill:#005EAE;" points="85.922,36.839 87.489,39.474 104.323,39.474 102.758,36.839 			"/>
			<polygon style="fill:#005EAE;" points="63.157,36.839 60.784,39.474 78.004,39.474 80.376,36.839 			"/>
			<polygon style="fill:#005EAE;" points="73.264,44.739 75.639,42.102 58.415,42.102 56.039,44.739 			"/>
			<polygon style="fill:#005EAE;" points="105.888,42.102 89.057,42.102 90.623,44.739 107.455,44.739 			"/>
			<polygon style="fill:#005EAE;" points="92.19,47.367 93.757,50 110.588,50 109.019,47.367 			"/>
			<polygon style="fill:#005EAE;" points="53.672,47.367 51.297,50 68.519,50 70.893,47.367 			"/>
		</g>
		<g>
			<g>
				<polygon style="fill:#005EAE;" points="19.024,15.787 18.558,18.421 33.968,18.421 34.437,15.787 				"/>
				<polygon style="fill:#005EAE;" points="17.629,23.687 33.037,23.687 33.504,21.052 18.095,21.052 				"/>
				<polygon style="fill:#005EAE;" points="16.7,28.947 32.108,28.947 32.573,26.314 17.162,26.314 				"/>
				<polygon style="fill:#005EAE;" points="15.765,34.212 31.178,34.212 31.643,31.58 16.231,31.58 				"/>
				<polygon style="fill:#005EAE;" points="14.836,39.474 30.247,39.474 30.714,36.839 15.3,36.839 				"/>
				<polygon style="fill:#005EAE;" points="13.905,44.739 29.315,44.739 29.78,42.102 14.372,42.102 				"/>
				<polygon style="fill:#005EAE;" points="12.976,50 28.388,50 28.851,47.367 13.444,47.367 				"/>
			</g>
			<g>
				<polygon style="fill:#005EAE;" points="2.321,0 1.859,2.632 54.924,2.632 55.387,0 				"/>
				<polygon style="fill:#005EAE;" points="0.928,7.896 53.99,7.896 54.457,5.261 1.393,5.261 				"/>
				<polygon style="fill:#005EAE;" points="0,13.161 53.061,13.161 53.525,10.524 0.464,10.524 				"/>
			</g>
		</g>
		<g>
			<path style="fill:#005EAE;" d="M144.466,0.084c-4.488,0-8.734,0.927-12.504,2.57h24.991
				C153.186,1.011,148.949,0.084,144.466,0.084z"/>
			<path style="fill:#005EAE;" d="M161.721,5.282h-34.525c-1.179,0.804-2.282,1.681-3.297,2.632h41.088L165,7.9
				C163.989,6.954,162.891,6.08,161.721,5.282z"/>
			<path style="fill:#005EAE;" d="M144.463,11.211c2.947,0,5.701,0.72,8.051,1.971c1.347,0.711,2.561,1.602,3.596,2.627
				c0.305,0.298,0.598,0.601,0.866,0.923l0.838-0.923l2.386-2.627l2.397-2.636h-41.149c-0.683,0.841-1.309,1.719-1.869,2.636h16.823
				C138.751,11.931,141.509,11.211,144.463,11.211z"/>
			<path style="fill:#005EAE;" d="M132.797,15.809h-14.604c-0.385,0.859-0.718,1.735-1,2.636h13.499
				C131.276,17.492,131.986,16.613,132.797,15.809z"/>
			<path style="fill:#005EAE;" d="M129.464,21.075h-12.911c-0.16,0.864-0.267,1.741-0.318,2.63h12.651
				C128.983,22.801,129.177,21.919,129.464,21.075z"/>
			<path style="fill:#005EAE;" d="M128.889,26.339h-12.651c0.055,0.893,0.165,1.77,0.316,2.63h12.918
				C129.187,28.121,128.99,27.244,128.889,26.339z"/>
			<path style="fill:#005EAE;" d="M130.719,31.601h-13.511c0.279,0.899,0.615,1.776,1,2.636h14.63
				C132.02,33.435,131.311,32.551,130.719,31.601z"/>
			<path style="fill:#005EAE;" d="M160.215,36.863l-2.387-2.627l-0.864-0.953c-0.279,0.331-0.586,0.647-0.894,0.953
				c-1.054,1.026-2.272,1.916-3.635,2.627c-2.334,1.227-5.059,1.931-7.972,1.931c-2.92,0-5.648-0.704-7.984-1.931h-16.878
				c0.564,0.917,1.196,1.795,1.88,2.633h41.128L160.215,36.863z"/>
			<path style="fill:#005EAE;" d="M127.253,44.761h34.404c1.185-0.8,2.295-1.684,3.319-2.634h-41.031
				C124.969,43.077,126.071,43.961,127.253,44.761z"/>
			<path style="fill:#005EAE;" d="M144.466,49.915c4.442,0,8.65-0.911,12.388-2.523h-24.8
				C135.799,49.004,140.011,49.915,144.466,49.915z"/>
		</g>
	</g>
</g>
</svg>
